<svg xmlns="http://www.w3.org/2000/svg" viewBox="0 0 16 16"><path d="M16 15.4v.6H0v-.6l2.8-2.3h10.5l2.7 2.3zm-.9 0l-.7-.6H1.6l-.7.6h14.2zM1.7 9.7V3.4c0-2.3 1.1-3.4 4-3.4h4.6c2.9 0 4 1.1 4 3.4v6.3c0 1.6-.4 2.4-1.7 2.9H3.4c-1.3-.5-1.7-1.3-1.7-2.9zm.6 4.6h11.5l-.7-.6H2.9l-.6.6zm1.1-8C3.4 7.4 4 8 5.7 8h4.6c1.7 0 2.3-.6 2.3-1.7V5.1c0-1.1-.6-1.7-2.3-1.7H5.7C4 3.4 3.4 4 3.4 5.1v1.2zm0 3.7c0 .5.4.9.9.9s.9-.4.9-.9-.4-.9-.9-.9-.9.4-.9.9zm1.7-8.3c0 .3.2.6.6.6h4.6c.3 0 .6-.2.6-.6 0-.3-.2-.6-.6-.6H5.7c-.3 0-.6.3-.6.6zm7.5 8.3c0-.5-.4-.9-.9-.9s-.9.4-.9.9.4.9.9.9.9-.4.9-.9z"/></svg>