<svg xmlns="http://www.w3.org/2000/svg" viewBox="0 0 16 16"><path d="M16 8c0 4.4-3.6 8-8 8s-8-3.6-8-8 3.6-8 8-8 8 3.6 8 8zm-1.1 0c0-3.8-3.1-6.9-6.9-6.9S1.1 4.2 1.1 8s3.1 6.9 6.9 6.9 6.9-3.1 6.9-6.9zm-.6 0c0 3.5-2.8 6.3-6.3 6.3S1.7 11.5 1.7 8 4.5 1.7 8 1.7s6.3 2.8 6.3 6.3zM7.1 6.4c0-.4.3-.6 1-.6.6 0 1.2.2 1.6.6l.8-1c-.6-.6-1.5-.9-2.4-.9-1.5 0-2.4.6-2.4 1.7 0 .3.1.7.3.9 0 .2.1.3.2.5h-.7v1.1h.9c-.1.6-.4 1.1-.9 1.5v1h4.9v-1.1H7.1c.4-.5.6-.9.6-1.4h1.4V7.6H7.6c0-.1-.2-.4-.3-.5 0-.2-.2-.4-.2-.7z"/></svg>