<svg xmlns="http://www.w3.org/2000/svg" viewBox="0 0 16 16"><path d="M16 3.5v1.7h-3.4V4c-.1-.8-1.6-1.2-3-1.4-.5 0-1-.1-1.6-.1s-1.1 0-1.6.1c-1.4.2-3 .8-3 1.4v1.1H0V3.4C0 2.7 1.4 0 7.7 0h.6C14.6 0 16 2.7 16 3.5zm-3.4 2.2c1.1 1.7 3.1 5.7 3.4 7.4H0c.4-1.7 2.3-5.7 3.4-7.4H4V4c.6-.6 1.7-.7 2.3-.8v1.3h3.4V3.2c.6.1 1.7.2 2.3.8v1.7h.6zM0 13.7h16V16H0v-2.3zm11.4-4.8c0-1.7-1.5-3.1-3.4-3.1S4.6 7.1 4.6 8.9C4.6 10.6 6.1 12 8 12s3.4-1.4 3.4-3.1zm-.5 0c0 .3-.1.6-.2.8l-2.1-.6.5 2.1c-.3.1-.7.2-1.1.2-1.6 0-2.9-1.2-2.9-2.6 0-1.4 1.3-2.6 2.9-2.6s2.9 1.2 2.9 2.7z"/></svg>