<svg xmlns="http://www.w3.org/2000/svg" viewBox="0 0 16 16"><path d="M5.7 15c-1 1-2.3 1.2-3.5.8l2.1-2.1L4 12l-1.7-.2-2.1 2.1c-.4-1.2-.2-2.6.8-3.6s2.3-1.2 3.5-.8l5.1-5.1c-.5-1.1-.2-2.5.7-3.4s2.3-1.2 3.5-.8l-2.1 2.1L12 4l1.7.2 2.1-2.1c.4 1.2.2 2.6-.8 3.6s-2.3 1.2-3.5.8l-5.1 5.1c.5 1.1.2 2.5-.7 3.4zm0-7.4L4.5 6.4c-.4.2-.8.2-1.2.2-.9 0-1.7-.3-2.3-1-1-1-1.2-2.3-.8-3.5l2.1 2.1L4 4l.2-1.7L2.1.2c.4-.1.8-.2 1.2-.2.9 0 1.7.3 2.4 1 1 1 1.2 2.3.8 3.5l1.2 1.2-2 1.9zm6.1 6.1l2.1 2.1c-.4.1-.8.2-1.2.2-.9 0-1.7-.3-2.3-1-1-1-1.2-2.3-.8-3.5l-1.2-1.2 1.9-1.9 1.2 1.2c.4-.1.8-.2 1.2-.2.9 0 1.7.3 2.3 1 1 1 1.2 2.3.8 3.5l-2.1-2.1-1.7.2-.2 1.7z"/></svg>