<svg xmlns="http://www.w3.org/2000/svg" viewBox="0 0 16 16"><path d="M2.8 10.6c-.3.4-.5.9-.6 1.4H0c0-1.1.4-3.4 2.9-3.4.6 0 1.1.1 1.5.4-.6.4-1.2 1-1.6 1.6zM1.1 6.3V5.1c0-.9.8-1.7 1.7-1.7s1.7.8 1.7 1.7v1.1C4.6 7.5 3.4 8 2.9 8s-1.8-.5-1.8-1.7zm12.6 8.6V16H2.3v-1.1c0-2.1.8-6.3 5.7-6.3s5.7 4.2 5.7 6.3zM5.1 5.1V2.9C5.1 1.3 6.4 0 8 0s2.9 1.3 2.9 2.9v2.3C10.9 7.1 9 8 8 8s-2.9-.9-2.9-2.9zm6.3 1.2V5.1c0-.9.8-1.7 1.7-1.7s1.7.8 1.7 1.7v1.1c0 1.2-1.1 1.7-1.7 1.7s-1.7-.4-1.7-1.6zM16 12h-2.2c-.2-.5-.4-.9-.6-1.4-.4-.7-1-1.2-1.6-1.6.4-.3.9-.4 1.5-.4 2.5 0 2.9 2.3 2.9 3.4z"/></svg>